<svg width="18" height="22" viewBox="0 0 18 22" fill="none" xmlns="http://www.w3.org/2000/svg">
<path d="M11.5083 8.44098C11.2354 8.44098 11.0142 8.66219 11.0142 8.93512V18.2745C11.0142 18.5472 11.2354 18.7686 11.5083 18.7686C11.7812 18.7686 12.0025 18.5472 12.0025 18.2745V8.93512C12.0025 8.66219 11.7812 8.44098 11.5083 8.44098Z" fill="#282828"/>
<path d="M5.67774 8.44098C5.4048 8.44098 5.18359 8.66219 5.18359 8.93512V18.2745C5.18359 18.5472 5.4048 18.7686 5.67774 18.7686C5.95068 18.7686 6.17188 18.5472 6.17188 18.2745V8.93512C6.17188 8.66219 5.95068 8.44098 5.67774 8.44098Z" fill="#282828"/>
<path d="M1.42786 7.07806V19.2527C1.42786 19.9723 1.69173 20.6481 2.15267 21.133C2.61149 21.6192 3.25002 21.8952 3.91827 21.8964H13.2676C13.9361 21.8952 14.5746 21.6192 15.0332 21.133C15.4942 20.6481 15.758 19.9723 15.758 19.2527V7.07806C16.6743 6.83485 17.2681 5.94964 17.1455 5.00941C17.0227 4.06938 16.2219 3.36619 15.2737 3.366H12.7438V2.74832C12.7467 2.22889 12.5413 1.73011 12.1736 1.36317C11.8058 0.996425 11.3063 0.792205 10.7869 0.796452H6.39903C5.8796 0.792205 5.38005 0.996425 5.01234 1.36317C4.64462 1.73011 4.43925 2.22889 4.44214 2.74832V3.366H1.91216C0.964024 3.36619 0.163164 4.06938 0.0403999 5.00941C-0.0821709 5.94964 0.511574 6.83485 1.42786 7.07806ZM13.2676 20.9081H3.91827C3.0734 20.9081 2.41615 20.1823 2.41615 19.2527V7.12149H14.7697V19.2527C14.7697 20.1823 14.1125 20.9081 13.2676 20.9081ZM5.43043 2.74832C5.42715 2.49102 5.52829 2.24337 5.71089 2.06173C5.8933 1.88009 6.14153 1.7803 6.39903 1.78474H10.7869C11.0444 1.7803 11.2926 1.88009 11.475 2.06173C11.6576 2.24317 11.7588 2.49102 11.7555 2.74832V3.366H5.43043V2.74832ZM1.91216 4.35429H15.2737C15.765 4.35429 16.1632 4.7525 16.1632 5.24375C16.1632 5.73499 15.765 6.1332 15.2737 6.1332H1.91216C1.42091 6.1332 1.0227 5.73499 1.0227 5.24375C1.0227 4.7525 1.42091 4.35429 1.91216 4.35429Z" fill="#282828"/>
<path d="M8.59302 8.44098C8.32008 8.44098 8.09888 8.66219 8.09888 8.93512V18.2745C8.09888 18.5472 8.32008 18.7686 8.59302 18.7686C8.86596 18.7686 9.08716 18.5472 9.08716 18.2745V8.93512C9.08716 8.66219 8.86596 8.44098 8.59302 8.44098Z" fill="#282828"/>
</svg>
