<svg width="18" height="17" viewBox="0 0 18 17" fill="none" xmlns="http://www.w3.org/2000/svg">
<path d="M15.9818 2.32727H8.5356L7.20327 0.919236C6.63505 0.300691 5.98571 0 5.21818 0H2.01818C0.905345 0 0 0.905345 0 2.01818V14.5273C0 15.6401 0.905345 16.5455 2.01818 16.5455H15.9818C17.0947 16.5455 18 15.6401 18 14.5273V4.34545C18 3.23262 17.0947 2.32727 15.9818 2.32727ZM17.4545 14.5273C17.4545 15.3393 16.7939 16 15.9818 16H2.01818C1.20611 16 0.545455 15.3393 0.545455 14.5273V6.09091C0.545455 5.27884 1.20611 4.61818 2.01818 4.61818H15.9818C16.7939 4.61818 17.4545 5.27884 17.4545 6.09091V14.5273ZM15.9818 4.07273H2.01818C1.43767 4.07273 0.914 4.31942 0.545455 4.71309V2.01818C0.545455 1.20611 1.20611 0.545455 2.01818 0.545455H5.21818C5.83345 0.545455 6.33702 0.781927 6.80287 1.28964C6.80382 1.29065 6.80476 1.29171 6.80575 1.29269L8.22011 2.78742C8.2716 2.84185 8.34324 2.87273 8.41818 2.87273H15.9818C16.7939 2.87273 17.4545 3.53338 17.4545 4.34545V4.71309C17.086 4.31942 16.5623 4.07273 15.9818 4.07273Z" fill="black"/>
<path d="M15.691 5.81818H11.9092C11.7586 5.81818 11.6365 5.94025 11.6365 6.0909C11.6365 6.24156 11.7586 6.36363 11.9092 6.36363H15.691C15.8416 6.36363 15.9637 6.24156 15.9637 6.0909C15.9637 5.94025 15.8416 5.81818 15.691 5.81818Z" fill="black"/>
<path d="M15.691 7.27274H11.9092C11.7586 7.27274 11.6365 7.39481 11.6365 7.54546C11.6365 7.69612 11.7586 7.81819 11.9092 7.81819H15.691C15.8416 7.81819 15.9637 7.69612 15.9637 7.54546C15.9637 7.39481 15.8416 7.27274 15.691 7.27274Z" fill="black"/>
</svg>
