<svg width="61" height="61" viewBox="0 0 61 61" fill="none" xmlns="http://www.w3.org/2000/svg">
<path d="M30.5 7.77533C24.9675 7.77556 19.6156 9.7444 15.4019 13.3296C11.1882 16.9147 8.38767 21.8823 7.50144 27.3433C6.6152 32.8044 7.70108 38.4027 10.5648 43.1364C13.4285 47.8701 17.8831 51.4303 23.1316 53.1801C24.2966 53.3841 24.7335 52.6851 24.7335 52.0734C24.7335 51.5201 24.7043 49.6852 24.7043 47.7339C18.8503 48.8115 17.3358 46.3069 16.8698 44.9963C16.3528 43.7216 15.5331 42.5921 14.4816 41.7052C13.6662 41.2683 12.5012 40.1907 14.4525 40.1616C15.1976 40.2425 15.9122 40.5018 16.5358 40.9175C17.1594 41.3332 17.6736 41.8931 18.0348 42.5498C18.3535 43.1222 18.782 43.6262 19.2958 44.0328C19.8095 44.4393 20.3985 44.7405 21.0289 44.9191C21.6593 45.0977 22.3187 45.1501 22.9694 45.0734C23.62 44.9966 24.2492 44.7923 24.8207 44.472C24.9216 43.2875 25.4495 42.18 26.3061 41.3558C21.122 40.7733 15.7049 38.7636 15.7049 29.8516C15.6721 27.536 16.5266 25.2956 18.0931 23.5899C17.3808 21.5774 17.4641 19.3687 18.3261 17.4156C18.3261 17.4156 20.2773 16.8039 24.7334 19.8037C28.5459 18.7552 32.5707 18.7552 36.3831 19.8037C40.8391 16.7748 42.7905 17.4156 42.7905 17.4156C43.6526 19.3687 43.7359 21.5774 43.0235 23.5899C44.5947 25.2927 45.4499 27.5351 45.4117 29.8516C45.4117 38.7927 39.9654 40.7733 34.7813 41.3558C35.3373 41.9193 35.7656 42.596 36.037 43.3397C36.3083 44.0835 36.4165 44.8769 36.354 45.6662C36.354 48.7825 36.3249 51.2871 36.3249 52.0735C36.3249 52.6851 36.7617 53.4132 37.9267 53.1802C43.166 51.4162 47.6078 47.8475 50.4593 43.1114C53.3108 38.3753 54.3864 32.7799 53.494 27.3241C52.6016 21.8684 49.7994 16.9073 45.5875 13.3265C41.3757 9.74565 36.0283 7.77821 30.5 7.77533Z" fill="#05362F"/>
</svg>
