<svg width="81" height="81" viewBox="0 0 81 81" fill="none" xmlns="http://www.w3.org/2000/svg">
<path fill-rule="evenodd" clip-rule="evenodd" d="M47.3996 17.4019L21.6435 19.2972C19.5668 19.4769 18.843 20.8308 18.843 22.4538V50.604C18.843 51.8687 19.294 52.9497 20.3791 54.3946L26.4336 62.2441C27.4281 63.5081 28.3318 63.7785 30.2308 63.688L60.1412 61.8832C62.6709 61.7036 63.3946 60.5298 63.3946 58.545V26.8754C63.3946 25.8493 62.9883 25.5529 61.7907 24.6792C61.7248 24.6313 61.6564 24.5815 61.5857 24.5297L53.3641 18.7554C51.3761 17.3124 50.5625 17.1308 47.3996 17.4019ZM30.909 26.356C28.467 26.5207 27.9121 26.5581 26.5253 25.4323L22.9988 22.6354C22.6391 22.2738 22.8195 21.8227 23.7226 21.7331L48.4842 19.9285C50.562 19.7476 51.6462 20.4707 52.4599 21.1018L56.707 24.1698C56.8879 24.2597 57.3389 24.8004 56.7964 24.8004L31.2243 26.3348L30.909 26.356ZM28.0607 58.2738V31.3875C28.0607 30.2148 28.4222 29.673 29.5059 29.5819L58.8747 27.8682C59.871 27.7781 60.3221 28.4101 60.3221 29.5819V56.288C60.3221 57.4618 60.1407 58.4556 58.5135 58.545L30.4098 60.17C28.7834 60.2594 28.0607 59.7188 28.0607 58.2738ZM55.8047 32.8297C55.9849 33.6426 55.8047 34.4546 54.9898 34.546L53.6356 34.8157V54.6648C52.4599 55.2963 51.3758 55.6573 50.4724 55.6573C49.0261 55.6573 48.6638 55.2058 47.5804 53.8531L38.723 39.9586V53.402L41.5258 54.034C41.5258 54.034 41.5258 55.6573 39.2646 55.6573L33.0308 56.0187C32.8496 55.6573 33.0308 54.7558 33.663 54.5751L35.2898 54.1246V36.3499L33.0311 36.1691C32.85 35.3563 33.301 34.1844 34.5672 34.0934L41.2547 33.6429L50.4724 47.7183V35.2667L48.1223 34.9973C47.9418 34.0035 48.6638 33.282 49.5676 33.1925L55.8047 32.8297Z" fill="#05362F"/>
</svg>
