<svg width="25" height="22" viewBox="0 0 25 22" fill="none" xmlns="http://www.w3.org/2000/svg">
<g clip-path="url(#clip0)">
<path d="M12.4914 14.3395C12.8962 14.3395 13.2241 14.0508 13.2241 13.6948V12.9051C13.2241 12.5491 12.8962 12.2605 12.4914 12.2605C12.0869 12.2605 11.759 12.5491 11.759 12.9051V13.6948C11.759 14.0508 12.0869 14.3395 12.4914 14.3395Z" fill="black"/>
<path d="M1.79019 8.3091C1.93343 8.43532 2.12112 8.49843 2.3088 8.49843C2.4961 8.49843 2.68321 8.43566 2.82626 8.31011C3.11256 8.05867 3.11313 7.65047 2.82741 7.39836L1.26414 6.01967C0.978422 5.76773 0.514555 5.76706 0.228262 6.01866C-0.0580316 6.2701 -0.0586038 6.6783 0.227117 6.93041L1.79019 8.3091Z" fill="black"/>
<path d="M22.658 8.5026C22.8495 8.5026 23.0408 8.43697 23.1846 8.30622L24.7429 6.88875C25.0242 6.63295 25.0166 6.22492 24.7257 5.97734C24.4351 5.7296 23.9712 5.73648 23.6899 5.99245L22.1316 7.40975C21.8502 7.66571 21.858 8.07375 22.1487 8.32132C22.291 8.44234 22.4745 8.5026 22.658 8.5026Z" fill="black"/>
<path d="M12.4914 5.10524C12.8962 5.10524 13.2241 4.81654 13.2241 4.46054V2.53534C13.2241 2.17934 12.8962 1.89064 12.4914 1.89064C12.0869 1.89064 11.759 2.17934 11.759 2.53534V4.46054C11.759 4.81654 12.0869 5.10524 12.4914 5.10524Z" fill="black"/>
<path d="M24.8986 13.6909C25.0506 13.466 25.0296 13.1763 24.8496 12.9683C24.7449 12.8465 23.4173 11.3191 21.2882 9.77455C20.004 8.84317 18.6928 8.09944 17.3915 7.56384C15.7363 6.88289 14.0906 6.53763 12.5001 6.53763C10.9093 6.53763 9.26367 6.88289 7.60847 7.56384C6.30689 8.09944 4.99597 8.84317 3.71175 9.77455C1.53947 11.3503 0.20051 12.9093 0.144625 12.9749C-0.0482083 13.2011 -0.0482083 13.5226 0.144625 13.7488C0.20051 13.8143 1.53947 15.3734 3.71175 16.9492C4.99597 17.8805 6.30689 18.6243 7.60847 19.1599C9.26367 19.8408 10.9093 20.1861 12.5001 20.1861C14.0906 20.1861 15.7363 19.8408 17.3915 19.1599C18.6928 18.6243 20.004 17.8805 21.2882 16.9492C23.4605 15.3734 24.7994 13.8145 24.8553 13.7488C24.8709 13.7304 24.8852 13.7107 24.8986 13.6909ZM4.66943 10.7509C6.51422 9.41687 9.37029 7.82686 12.4999 7.82686C15.6296 7.82686 18.4857 9.41687 20.3305 10.7509C21.658 11.7108 22.6695 12.6813 23.2194 13.2485C22.8837 13.4071 22.536 13.4657 22.1682 13.4257C21.584 13.3619 21.0906 13.0654 20.8352 12.8824C20.3459 12.4581 19.8403 12.0586 19.3318 11.6946C16.3546 9.5634 13.9733 9.11609 12.5001 9.11609C9.83053 9.11609 7.3113 10.5183 5.66812 11.6946C5.15333 12.0631 4.64139 12.468 4.14663 12.8983C3.64404 13.3151 3.12295 13.4873 2.55456 13.4257C2.28124 13.3958 2.02813 13.3149 1.80955 13.2186C2.36554 12.6478 3.3648 11.6942 4.66943 10.7509ZM12.4991 10.478C14.3008 10.478 15.7666 11.7714 15.7666 13.3613C15.7666 14.9513 14.3008 16.2447 12.4991 16.2447C10.6974 16.2447 9.23162 14.9513 9.23162 13.3613C9.23162 11.7714 10.6974 10.478 12.4991 10.478ZM12.5001 18.8969C9.37029 18.8969 6.51422 17.3067 4.66943 15.9728C4.07415 15.5424 3.54276 15.1099 3.08767 14.7126C3.83115 14.647 4.53706 14.3484 5.15943 13.8299C5.16324 13.8267 5.16706 13.8235 5.17068 13.8202C5.63398 13.4172 6.11234 13.0385 6.59261 12.6948C7.04828 12.3685 7.57738 12.0227 8.15778 11.7013C7.9064 12.2102 7.76659 12.7716 7.76659 13.3613C7.76659 15.6621 9.88966 17.5339 12.4991 17.5339C15.1087 17.5339 17.2316 15.6621 17.2316 13.3613C17.2316 12.7706 17.0914 12.2085 16.8395 11.6987C17.3344 11.9728 17.8574 12.301 18.4075 12.6948C18.8878 13.0385 19.3661 13.4172 19.8292 13.8202C19.8445 13.8334 19.8603 13.846 19.8767 13.8581C20.32 14.1815 21.0322 14.585 21.9271 14.697C19.9258 16.4456 16.421 18.8969 12.5001 18.8969Z" fill="black"/>
</g>
<defs>
<clipPath id="clip0">
<rect width="25" height="22" fill="white"/>
</clipPath>
</defs>
</svg>
